HIERARCHY
ROOT hips
{
	OFFSET -0.003675 0.299928 -0.021708
	CHANNELS 6 Xposition Yposition Zposition Xrotation Yrotation Zrotation
	JOINT LowerBack
	{
		OFFSET 0.000919 0.177588 0.009275
		CHANNELS 3 Xrotation Yrotation Zrotation
		JOINT spine
		{
			OFFSET 0.000919 0.177588 0.009275
			CHANNELS 3 Xrotation Yrotation Zrotation
			JOINT chest
			{
				OFFSET 0.000456 0.100015 0.004638
				CHANNELS 3 Xrotation Yrotation Zrotation
				JOINT neck
				{
					OFFSET 0.000456 0.100015 0.004638
					CHANNELS 3 Xrotation Yrotation Zrotation
					JOINT head
					{
						OFFSET 0.000924 0.155147 0.009274
						CHANNELS 6 Xposition Yposition Zposition Xrotation Yrotation Zrotation
						End Site
						{
							OFFSET 0.000000 0.153400 0.000000
						}
					}
				}
				JOINT shoulder.L
				{
					OFFSET 0.019937 0.078966 0.057518
					CHANNELS 6 Xposition Yposition Zposition Yrotation Xrotation Zrotation
					JOINT upper_arm.L
					{
						OFFSET 0.177024 -0.020465 -0.095062
						CHANNELS 6 Xposition Yposition Zposition Xrotation Yrotation Zrotation
						JOINT forearm.L
						{
							OFFSET 0.247100 -0.135500 -0.061800
							CHANNELS 3 Xrotation Yrotation Zrotation
							JOINT hand.L
							{
								OFFSET 0.217000 -0.143000 0.039300
								CHANNELS 3 Xrotation Yrotation Zrotation
								JOINT palm.01.L
								{
									OFFSET 0.021770 -0.038291 0.012954
									CHANNELS 6 Xposition Yposition Zposition Yrotation Xrotation Zrotation
									JOINT f_index.01.L
									{
										OFFSET 0.053215 -0.044137 0.008236
										CHANNELS 3 Xrotation Yrotation Zrotation
										JOINT f_index.02.L
										{
											OFFSET 0.036108 -0.024723 -0.010656
											CHANNELS 3 Xrotation Yrotation Zrotation
											JOINT f_index.03.L
											{
												OFFSET 0.021342 -0.014948 -0.010846
												CHANNELS 3 Xrotation Yrotation Zrotation
												End Site
												{
													OFFSET 0.015600 -0.009860 -0.013421
												}
											}
										}
									}
									JOINT thumb.01.L
									{
										OFFSET -0.009090 -0.002348 -0.024223
										CHANNELS 6 Xposition Yposition Zposition Xrotation Yrotation Zrotation
										JOINT thumb.02.L
										{
											OFFSET 0.019713 -0.035076 -0.011120
											CHANNELS 3 Xrotation Yrotation Zrotation
											JOINT thumb.03.L
											{
												OFFSET 0.024877 -0.021748 -0.005176
												CHANNELS 3 Xrotation Yrotation Zrotation
												End Site
												{
													OFFSET 0.016125 -0.013029 -0.001569
												}
											}
										}
									}
								}
								JOINT palm.02.L
								{
									OFFSET 0.032823 -0.025104 0.012281
									CHANNELS 6 Xposition Yposition Zposition Yrotation Xrotation Zrotation
									JOINT f_middle.01.L
									{
										OFFSET 0.055723 -0.038469 0.008037
										CHANNELS 3 Xrotation Yrotation Zrotation
										JOINT f_middle.02.L
										{
											OFFSET 0.038167 -0.027473 -0.015582
											CHANNELS 3 Xrotation Yrotation Zrotation
											JOINT f_middle.03.L
											{
												OFFSET 0.021707 -0.016587 -0.017037
												CHANNELS 3 Xrotation Yrotation Zrotation
												End Site
												{
													OFFSET 0.014112 -0.010584 -0.014294
												}
											}
										}
									}
								}
								JOINT palm.03.L
								{
									OFFSET 0.039230 -0.011402 0.008390
									CHANNELS 6 Xposition Yposition Zposition Yrotation Xrotation Zrotation
									JOINT f_ring.01.L
									{
										OFFSET 0.061796 -0.031470 0.007910
										CHANNELS 3 Xrotation Yrotation Zrotation
										JOINT f_ring.02.L
										{
											OFFSET 0.033092 -0.023401 -0.019127
											CHANNELS 3 Xrotation Yrotation Zrotation
											JOINT f_ring.03.L
											{
												OFFSET 0.021392 -0.015362 -0.017824
												CHANNELS 3 Xrotation Yrotation Zrotation
												End Site
												{
													OFFSET 0.008670 -0.007297 -0.014686
												}
											}
										}
									}
								}
								JOINT palm.04.L
								{
									OFFSET 0.043417 0.002450 0.002889
									CHANNELS 6 Xposition Yposition Zposition Yrotation Xrotation Zrotation
									JOINT f_pinky.01.L
									{
										OFFSET 0.069986 -0.026156 0.003627
										CHANNELS 3 Xrotation Yrotation Zrotation
										JOINT f_pinky.02.L
										{
											OFFSET 0.018520 -0.012813 -0.016429
											CHANNELS 3 Xrotation Yrotation Zrotation
											JOINT f_pinky.03.L
											{
												OFFSET 0.013822 -0.009796 -0.014947
												CHANNELS 3 Xrotation Yrotation Zrotation
												End Site
												{
													OFFSET 0.007238 -0.006103 -0.011657
												}
											}
										}
									}
								}
							}
						}
					}
				}
				JOINT shoulder.R
				{
					OFFSET -0.016662 0.078957 0.057696
					CHANNELS 6 Xposition Yposition Zposition Yrotation Xrotation Zrotation
					JOINT upper_arm.R
					{
						OFFSET -0.176972 -0.020537 -0.095144
						CHANNELS 6 Xposition Yposition Zposition Xrotation Yrotation Zrotation
						JOINT forearm.R
						{
							OFFSET -0.247100 -0.135500 -0.061800
							CHANNELS 3 Xrotation Yrotation Zrotation
							JOINT hand.R
							{
								OFFSET -0.217000 -0.143000 0.039300
								CHANNELS 3 Xrotation Yrotation Zrotation
								JOINT palm.01.R
								{
									OFFSET -0.021773 -0.038278 0.012988
									CHANNELS 6 Xposition Yposition Zposition Yrotation Xrotation Zrotation
									JOINT f_index.01.R
									{
										OFFSET -0.053212 -0.044139 0.008249
										CHANNELS 3 Xrotation Yrotation Zrotation
										JOINT f_index.02.R
										{
											OFFSET -0.036049 -0.024835 -0.010634
											CHANNELS 3 Xrotation Yrotation Zrotation
											JOINT f_index.03.R
											{
												OFFSET -0.021371 -0.014881 -0.010866
												CHANNELS 3 Xrotation Yrotation Zrotation
												End Site
												{
													OFFSET -0.015584 -0.009883 -0.013422
												}
											}
										}
									}
									JOINT thumb.01.R
									{
										OFFSET 0.009113 -0.002381 -0.024211
										CHANNELS 6 Xposition Yposition Zposition Xrotation Yrotation Zrotation
										JOINT thumb.02.R
										{
											OFFSET -0.019694 -0.035097 -0.011088
											CHANNELS 3 Xrotation Yrotation Zrotation
											JOINT thumb.03.R
											{
												OFFSET -0.024867 -0.021762 -0.005168
												CHANNELS 3 Xrotation Yrotation Zrotation
												End Site
												{
													OFFSET -0.016120 -0.013036 -0.001565
												}
											}
										}
									}
								}
								JOINT palm.02.R
								{
									OFFSET -0.032828 -0.025095 0.012286
									CHANNELS 6 Xposition Yposition Zposition Yrotation Xrotation Zrotation
									JOINT f_middle.01.R
									{
										OFFSET -0.055721 -0.038472 0.008040
										CHANNELS 3 Xrotation Yrotation Zrotation
										JOINT f_middle.02.R
										{
											OFFSET -0.038101 -0.027593 -0.015557
											CHANNELS 3 Xrotation Yrotation Zrotation
											JOINT f_middle.03.R
											{
												OFFSET -0.021730 -0.016530 -0.017054
												CHANNELS 3 Xrotation Yrotation Zrotation
												End Site
												{
													OFFSET -0.014096 -0.010608 -0.014293
												}
											}
										}
									}
								}
								JOINT palm.03.R
								{
									OFFSET -0.039192 -0.011488 0.008390
									CHANNELS 6 Xposition Yposition Zposition Yrotation Xrotation Zrotation
									JOINT f_ring.01.R
									{
										OFFSET -0.061839 -0.031387 0.007876
										CHANNELS 3 Xrotation Yrotation Zrotation
										JOINT f_ring.02.R
										{
											OFFSET -0.033068 -0.023437 -0.019125
											CHANNELS 3 Xrotation Yrotation Zrotation
											JOINT f_ring.03.R
											{
												OFFSET -0.021371 -0.015393 -0.017822
												CHANNELS 3 Xrotation Yrotation Zrotation
												End Site
												{
													OFFSET -0.008654 -0.007321 -0.014684
												}
											}
										}
									}
								}
								JOINT palm.04.R
								{
									OFFSET -0.043421 0.002443 0.002845
									CHANNELS 6 Xposition Yposition Zposition Yrotation Xrotation Zrotation
									JOINT f_pinky.01.R
									{
										OFFSET -0.069983 -0.026169 0.003599
										CHANNELS 3 Xrotation Yrotation Zrotation
										JOINT f_pinky.02.R
										{
											OFFSET -0.018501 -0.012842 -0.016428
											CHANNELS 3 Xrotation Yrotation Zrotation
											JOINT f_pinky.03.R
											{
												OFFSET -0.013806 -0.009821 -0.014946
												CHANNELS 3 Xrotation Yrotation Zrotation
												End Site
												{
													OFFSET -0.007226 -0.006121 -0.011655
												}
											}
										}
									}
								}
							}
						}
					}
				}
			}
		}
	}
	JOINT pelvis.L
	{
		OFFSET 0.000000 0.000000 0.000000
		CHANNELS 6 Xposition Yposition Zposition Xrotation Yrotation Zrotation
		JOINT thigh.L
		{
			OFFSET 0.101675 0.001054 -0.000000
			CHANNELS 3 Xrotation Yrotation Zrotation
			JOINT shin.L
			{
				OFFSET 0.000000 -0.534800 0.041000
				CHANNELS 3 Xrotation Yrotation Zrotation
				JOINT foot.L
				{
					OFFSET 0.000000 -0.452000 -0.044800
					CHANNELS 3 Xrotation Yrotation Zrotation
					JOINT toe.L
					{
						OFFSET -0.000000 -0.068500 0.109600
						CHANNELS 3 Xrotation Yrotation Zrotation
						End Site
						{
							OFFSET -0.000000 0.000000 0.067200
						}
					}
				}
				JOINT heel.L
				{
					OFFSET 0.000000 -0.452000 -0.044800
					CHANNELS 3 Xrotation Yrotation Zrotation
					JOINT heel.02.L
					{
						OFFSET -0.038000 -0.085200 0.016200
						CHANNELS 6 Xposition Yposition Zposition Xrotation Yrotation Zrotation
						End Site
						{
							OFFSET 0.080000 -0.000000 0.000000
						}
					}
				}
			}
		}
	}
	JOINT pelvis.R
	{
		OFFSET 0.000000 0.000000 0.000000
		CHANNELS 6 Xposition Yposition Zposition Xrotation Yrotation Zrotation
		JOINT thigh.R
		{
			OFFSET -0.094325 0.001054 0.000000
			CHANNELS 3 Xrotation Yrotation Zrotation
			JOINT shin.R
			{
				OFFSET 0.000000 -0.534800 0.041000
				CHANNELS 3 Xrotation Yrotation Zrotation
				JOINT foot.R
				{
					OFFSET 0.000000 -0.452000 -0.044800
					CHANNELS 3 Xrotation Yrotation Zrotation
					JOINT toe.R
					{
						OFFSET -0.000000 -0.068500 0.109600
						CHANNELS 3 Xrotation Yrotation Zrotation
						End Site
						{
							OFFSET -0.000000 0.000000 0.067200
						}
					}
				}
				JOINT heel.R
				{
					OFFSET 0.000000 -0.452000 -0.044800
					CHANNELS 3 Xrotation Yrotation Zrotation
					JOINT heel.02.R
					{
						OFFSET 0.038000 -0.085200 0.016200
						CHANNELS 6 Xposition Yposition Zposition Xrotation Yrotation Zrotation
						End Site
						{
							OFFSET -0.080000 0.000000 -0.000000
						}
					}
				}
			}
		}
	}
}
MOTION
Frames: 4
Frame Time: 0.041667
-0.017446 0.236244 -0.012009 73.898446 25.132665 83.934419 0.000002 0.000001 0.000001 0.000003 0.000000 -0.000000 0.000000 -0.000001 -0.000001 0.000001 0.000001 -0.000000 0.000924 0.155148 0.009274 -0.641804 0.008169 1.718684 0.019937 0.078966 0.057518 3.883169 5.360757 40.209228 0.177024 -0.020465 -0.095062 -56.304938 8.088236 -50.176397 -19.514843 -16.414099 -19.556240 -0.000002 0.000001 -0.000002 0.021770 -0.038291 0.012954 0.000000 -0.000001 -0.000002 -0.000000 -0.000003 0.000005 -0.000001 -0.000002 0.000008 -0.000000 -0.000002 -0.000001 -0.009090 -0.002348 -0.024224 0.000002 -0.000000 -0.000001 0.000000 0.000002 -0.000002 -0.000001 -0.000001 -0.000001 0.032823 -0.025104 0.012281 -0.000003 -0.000000 0.000005 -0.000002 0.000000 -0.000005 -0.000004 -0.000001 0.000003 -0.000000 -0.000003 0.000005 0.039230 -0.011402 0.008390 -0.000001 0.000001 0.000003 0.000001 0.000002 -0.000000 0.000001 0.000003 -0.000004 0.000003 -0.000002 0.000003 0.043417 0.002450 0.002889 0.000000 0.000002 -0.000005 -0.000003 -0.000006 0.000002 0.000000 0.000001 -0.000003 -0.000005 -0.000003 -0.000005 -0.016662 0.078957 0.057696 13.312268 4.231115 -39.759129 -0.176972 -0.020537 -0.095144 -69.197289 -21.004778 53.356157 -0.866078 2.823718 15.759053 -0.000004 0.000005 0.000003 -0.021773 -0.038278 0.012988 0.000000 0.000000 -0.000003 -0.000000 0.000007 -0.000006 -0.000001 0.000001 -0.000008 -0.000002 0.000002 0.000005 0.009114 -0.002381 -0.024212 0.000004 0.000000 -0.000003 -0.000003 -0.000001 0.000002 -0.000003 -0.000000 -0.000006 -0.032828 -0.025095 0.012286 0.000001 0.000002 -0.000004 -0.000002 0.000005 0.000001 -0.000000 -0.000001 -0.000002 0.000000 0.000004 -0.000005 -0.039192 -0.011488 0.008390 -0.000001 0.000003 -0.000002 0.000001 0.000001 -0.000002 0.000003 -0.000002 0.000002 -0.000002 0.000001 -0.000002 -0.043421 0.002443 0.002845 -0.000001 0.000001 -0.000005 -0.000003 0.000003 -0.000002 0.000003 0.000000 0.000002 -0.000002 -0.000003 -0.000002 0.000000 0.000000 -0.000000 -1.838503 1.437932 -17.504076 -41.578158 -1.391371 -15.608668 43.862177 0.434640 -4.387436 0.000002 -0.000003 0.000002 0.000002 -0.000002 -0.000005 0.000003 -0.000001 0.000001 -0.038000 -0.085200 0.016200 -0.000002 -0.000001 -0.000001 -0.000000 0.000000 -0.000000 -1.749233 1.410793 -16.272113 -33.931707 0.416130 2.591738 40.900860 2.756565 -29.062882 0.000000 -0.000001 0.000001 0.000004 -0.000005 -0.000002 0.000003 -0.000001 0.000003 0.038000 -0.085200 0.016200 0.000002 -0.000002 0.000000 
-0.017721 0.238132 -0.011812 79.591887 24.844238 79.240590 0.000003 0.000001 0.000001 -0.000000 0.000001 -0.000001 -0.000001 -0.000001 -0.000002 0.000001 0.000001 -0.000002 0.000924 0.155148 0.009274 -2.913918 0.014334 2.108866 0.019937 0.078966 0.057518 5.684209 5.166718 39.087892 0.177025 -0.020465 -0.095062 -57.513068 8.714713 -50.552798 -15.741353 -14.297893 -17.724221 -0.000003 -0.000004 0.000000 0.021770 -0.038291 0.012954 0.000001 0.000003 -0.000004 0.000001 0.000002 0.000002 0.000001 0.000001 0.000005 -0.000000 0.000003 -0.000000 -0.009090 -0.002348 -0.024223 0.000001 0.000000 0.000001 0.000001 0.000002 0.000001 0.000002 -0.000001 -0.000001 0.032823 -0.025104 0.012281 -0.000002 0.000002 -0.000001 0.000003 0.000004 -0.000003 -0.000002 0.000001 0.000003 -0.000000 -0.000001 0.000003 0.039230 -0.011402 0.008390 0.000000 -0.000000 0.000004 -0.000000 0.000000 -0.000000 -0.000001 0.000000 -0.000002 -0.000000 -0.000003 0.000003 0.043417 0.002450 0.002889 -0.000002 0.000002 -0.000005 -0.000002 -0.000001 -0.000009 0.000000 0.000002 -0.000001 -0.000001 -0.000000 -0.000003 -0.016662 0.078957 0.057696 18.007763 4.409094 -41.008138 -0.176972 -0.020537 -0.095144 -75.038767 -21.832560 51.225295 5.409407 -3.848809 11.380222 0.000003 0.000002 -0.000000 -0.021773 -0.038278 0.012988 -0.000001 -0.000003 0.000000 -0.000002 0.000000 -0.000005 -0.000000 0.000003 -0.000004 0.000006 0.000002 0.000003 0.009114 -0.002381 -0.024212 0.000002 -0.000005 -0.000005 -0.000001 -0.000002 -0.000001 0.000000 -0.000000 0.000003 -0.032828 -0.025095 0.012286 -0.000001 0.000001 -0.000001 0.000001 0.000001 -0.000003 0.000001 0.000002 -0.000002 -0.000006 0.000003 -0.000004 -0.039192 -0.011488 0.008390 -0.000002 0.000005 -0.000000 0.000003 0.000003 -0.000002 -0.000003 0.000000 -0.000000 -0.000000 0.000004 -0.000003 -0.043421 0.002443 0.002845 -0.000003 0.000003 -0.000001 -0.000001 0.000002 -0.000002 -0.000002 -0.000005 0.000000 0.000001 -0.000001 -0.000000 -0.000000 0.000000 0.000000 -1.874357 1.366417 -16.612644 -46.656404 -1.379730 -15.191439 43.766493 0.511246 -5.163103 0.000002 -0.000004 0.000002 0.000006 0.000000 -0.000001 0.000000 0.000000 -0.000001 -0.038000 -0.085200 0.016200 -0.000000 0.000001 -0.000000 -0.000000 0.000000 0.000000 -1.786549 1.341211 -15.380526 -41.718970 0.522694 3.503808 44.096183 2.852031 -30.173501 -0.000002 -0.000000 0.000000 0.000001 0.000001 0.000000 0.000007 -0.000002 0.000001 0.038000 -0.085200 0.016200 -0.000003 -0.000002 0.000001 
-0.018662 0.229532 -0.037428 -0.241622 -6.677424 90.437702 -0.000001 0.000000 -0.000000 0.000000 0.000000 0.000000 0.000000 -0.000000 -0.000000 0.000001 -0.000000 -0.000000 0.000924 0.155147 0.009274 -11.826205 0.027487 -18.978881 0.019937 0.078966 0.057518 -18.704538 -0.524746 28.133396 0.177025 -0.020465 -0.095062 -7.155273 14.582246 -56.856404 5.168982 7.027500 0.331735 -0.000001 0.000002 0.000001 0.021770 -0.038291 0.012954 0.000001 -0.000000 -0.000009 -0.000002 -0.000001 -0.000000 -0.000002 0.000001 0.000010 -0.000000 0.000005 -0.000003 -0.009090 -0.002348 -0.024224 -0.000001 -0.000002 -0.000001 -0.000001 0.000000 -0.000000 0.000000 0.000001 -0.000008 0.032823 -0.025104 0.012281 -0.000001 0.000000 -0.000001 -0.000001 -0.000000 -0.000000 -0.000003 -0.000003 -0.000001 -0.000002 -0.000002 -0.000006 0.039230 -0.011402 0.008390 0.000001 -0.000001 0.000001 0.000003 0.000000 -0.000000 0.000001 0.000002 0.000003 0.000003 -0.000001 0.000005 0.043417 0.002450 0.002889 -0.000001 -0.000001 -0.000005 0.000002 -0.000004 0.000003 0.000003 0.000001 -0.000002 -0.000003 -0.000002 -0.000001 -0.016662 0.078956 0.057696 -16.223229 3.241454 -24.928498 -0.176972 -0.020537 -0.095144 0.430761 -11.943886 49.225484 -1.144523 3.494885 11.483333 -0.000001 -0.000002 0.000004 -0.021773 -0.038278 0.012988 -0.000000 -0.000001 -0.000005 -0.000001 0.000003 -0.000004 -0.000000 0.000001 -0.000008 0.000000 -0.000002 0.000003 0.009114 -0.002381 -0.024212 -0.000003 -0.000002 -0.000003 -0.000002 0.000001 0.000000 -0.000001 -0.000001 -0.000003 -0.032828 -0.025095 0.012286 0.000000 -0.000001 0.000001 0.000001 0.000003 0.000001 -0.000000 -0.000003 -0.000001 -0.000000 0.000003 -0.000003 -0.039192 -0.011488 0.008390 -0.000003 0.000003 -0.000000 -0.000002 0.000005 0.000002 0.000004 -0.000002 0.000005 -0.000005 0.000003 -0.000005 -0.043421 0.002443 0.002845 -0.000003 0.000000 -0.000001 0.000001 0.000008 -0.000001 0.000001 -0.000004 0.000004 -0.000001 0.000002 -0.000001 0.000000 0.000000 -0.000000 -1.967911 -0.062314 -0.261987 -39.448270 -0.145806 0.829987 54.876065 -0.242758 2.452143 0.000000 0.000000 -0.000000 -0.000002 -0.000000 -0.000000 0.000000 0.000000 -0.000000 -0.038000 -0.085200 0.016200 0.000000 0.000000 -0.000000 0.000000 0.000000 0.000000 -1.927803 -0.062081 0.972252 -59.160346 0.839324 6.781317 73.690030 0.299792 -3.024387 0.000002 0.000000 -0.000000 -0.000000 0.000000 -0.000000 0.000003 0.000000 -0.000000 0.038000 -0.085200 0.016200 -0.000006 0.000001 -0.000000 
-0.018436 0.245123 -0.012339 88.356632 23.969864 73.656022 0.000001 -0.000001 0.000002 -0.000000 -0.000001 -0.000002 -0.000001 -0.000000 0.000000 0.000001 0.000001 0.000000 0.000924 0.155148 0.009274 -10.011857 0.036634 -0.701617 0.019937 0.078966 0.057518 11.146358 5.448637 36.080491 0.177025 -0.020465 -0.095062 -52.129950 9.977055 -52.169439 -15.694759 -15.305467 -14.860125 0.000002 0.000003 -0.000001 0.021770 -0.038291 0.012954 0.000005 0.000004 0.000001 -0.000003 -0.000000 0.000003 0.000002 0.000005 0.000005 -0.000003 0.000001 -0.000000 -0.009090 -0.002348 -0.024223 0.000001 -0.000001 0.000001 0.000000 0.000001 0.000005 -0.000001 0.000000 -0.000002 0.032823 -0.025104 0.012281 0.000003 0.000002 0.000005 0.000001 0.000001 -0.000005 -0.000003 0.000002 0.000007 -0.000004 -0.000002 0.000006 0.039230 -0.011402 0.008390 0.000004 -0.000000 0.000004 -0.000003 0.000003 0.000001 -0.000001 0.000001 0.000003 -0.000005 -0.000006 0.000003 0.043417 0.002450 0.002889 0.000005 0.000003 -0.000005 -0.000001 -0.000006 0.000003 0.000003 0.000003 0.000001 0.000004 -0.000004 -0.000001 -0.016662 0.078957 0.057696 25.543516 6.300210 -46.072416 -0.176972 -0.020537 -0.095144 -78.442482 -23.384447 50.613218 9.190338 -9.372333 8.176607 0.000002 0.000002 -0.000000 -0.021773 -0.038278 0.012988 -0.000003 -0.000001 -0.000002 -0.000004 0.000002 -0.000004 -0.000000 -0.000000 0.000001 0.000001 0.000002 0.000007 0.009114 -0.002381 -0.024211 0.000001 -0.000000 -0.000003 0.000001 -0.000003 0.000002 0.000004 0.000001 -0.000006 -0.032828 -0.025095 0.012286 -0.000003 0.000001 -0.000001 0.000000 0.000006 -0.000001 0.000003 0.000001 0.000001 -0.000002 -0.000003 -0.000004 -0.039192 -0.011488 0.008390 -0.000001 0.000001 0.000003 -0.000002 0.000004 -0.000005 0.000004 -0.000001 0.000003 -0.000003 -0.000000 0.000000 -0.043421 0.002443 0.002845 -0.000002 0.000001 0.000005 -0.000003 0.000003 0.000001 -0.000001 0.000001 0.000002 0.000005 0.000003 0.000002 0.000000 0.000000 -0.000000 -1.859358 1.023001 -12.856814 -62.455748 -1.344529 -14.096181 57.362722 0.893964 -9.055677 -0.000003 -0.000002 -0.000000 0.000000 0.000000 -0.000000 -0.000002 -0.000001 0.000001 -0.038000 -0.085200 0.016200 0.000001 0.000001 0.000001 -0.000000 0.000000 -0.000000 -1.784438 1.006729 -11.623957 -55.897291 0.644097 4.362556 52.937053 2.986895 -31.764368 0.000000 0.000001 0.000003 0.000001 -0.000002 -0.000001 0.000005 0.000002 0.000003 0.038000 -0.085200 0.016200 -0.000003 -0.000002 0.000001 
